<svg width="120" height="120" viewBox="0 0 120 120" fill="none" xmlns="http://www.w3.org/2000/svg">
<path d="M60 7.5C31.0078 7.5 7.5 31.0078 7.5 60C7.5 88.9922 31.0078 112.5 60 112.5C88.9922 112.5 112.5 88.9922 112.5 60C112.5 31.0078 88.9922 7.5 60 7.5ZM76.8867 60.8086L51.293 79.4297C51.1527 79.5305 50.9873 79.5907 50.815 79.6037C50.6427 79.6166 50.4701 79.5818 50.3163 79.5031C50.1625 79.4244 50.0334 79.3048 49.9431 79.1574C49.8529 79.0101 49.805 78.8407 49.8047 78.668V41.4492C49.8041 41.2761 49.8515 41.1062 49.9416 40.9583C50.0317 40.8105 50.1609 40.6905 50.3151 40.6116C50.4692 40.5327 50.6421 40.4981 50.8147 40.5115C50.9873 40.5249 51.1529 40.5858 51.293 40.6875L76.8867 59.2969C77.0076 59.3824 77.1063 59.4957 77.1743 59.6272C77.2424 59.7587 77.2779 59.9046 77.2779 60.0527C77.2779 60.2008 77.2424 60.3468 77.1743 60.4783C77.1063 60.6098 77.0076 60.7231 76.8867 60.8086V60.8086Z" fill="white"/>
</svg>
